<svg id="Capa_1" xmlns="http://www.w3.org/2000/svg" viewBox="0 0 512 512"><style>.st0{fill:#fff;stroke:#007558;stroke-miterlimit:10}</style><path class="st0" d="M503.4 343.4c-5.7-5.7-12.7-8.6-20.9-8.6H339.7l-41.8 41.8c-11.9 11.5-25.8 17.2-41.8 17.2-16 0-29.9-5.7-41.8-17.2l-41.5-41.8H29.5c-8.2 0-15.2 2.9-20.9 8.6-5.7 5.7-8.6 12.7-8.6 20.9v98.5c0 8.2 2.9 15.2 8.6 20.9 5.7 5.7 12.7 8.6 20.9 8.6h452.9c8.2 0 15.2-2.9 20.9-8.6 5.7-5.7 8.6-12.7 8.6-20.9v-98.5c.1-8.2-2.8-15.2-8.5-20.9zM388 447.1c-3.9 3.9-8.5 5.8-13.9 5.8-5.3 0-9.9-1.9-13.8-5.8-3.9-3.9-5.8-8.5-5.8-13.8 0-5.3 1.9-10 5.8-13.8 3.9-3.9 8.5-5.9 13.8-5.9 5.3 0 9.9 2 13.9 5.9 3.9 3.9 5.8 8.5 5.8 13.8 0 5.3-1.9 9.9-5.8 13.8zm78.8 0c-3.9 3.9-8.5 5.8-13.8 5.8-5.3 0-9.9-1.9-13.8-5.8-3.9-3.9-5.8-8.5-5.8-13.8 0-5.3 1.9-10 5.8-13.8 3.9-3.9 8.5-5.9 13.8-5.9s10 2 13.8 5.9c3.9 3.9 5.8 8.5 5.8 13.8 0 5.3-1.9 9.9-5.8 13.8z"/><path class="st0" d="M242.2 348.6c3.7 3.9 8.3 5.8 13.8 5.8s10.1-1.9 13.8-5.8l137.8-137.8c6.4-5.9 7.8-13.1 4.3-21.5-3.5-8-9.5-12-18.2-12h-78.8V39.4c0-5.3-2-9.9-5.8-13.8-3.9-3.9-8.5-5.8-13.8-5.8h-78.8c-5.3 0-9.9 1.9-13.8 5.8-3.9 3.9-5.8 8.5-5.8 13.8v137.8h-78.8c-8.6 0-14.7 4-18.2 12-3.5 8.4-2.1 15.6 4.3 21.5l138 137.9z"/></svg>